<?xml version="1.0" encoding="UTF-8"?>
<svg id="Layer_1" data-name="Layer 1" xmlns="http://www.w3.org/2000/svg" viewBox="0 0 158.67 158.67">
  <defs>
    <style>
      .cls-1 {
        fill: #4b8790;
      }
    </style>
  </defs>
  <path class="cls-1" d="M95.23,30.78h-.03C94.56,13.67,80.44,0,63.12,0h-31.35v31.56c0,17.43,14.18,31.56,31.67,31.56h.03v-25.89c0-2.83,2.31-5.13,5.15-5.13h21.43s.04,0,.06,0c1.25.01,2.84.35,3.66,1.46,1.11,1.51.59,2.63.77,3.03.17.36.48.32.69.11s0-4.68,0-4.68c0-.07,0-.13,0-.2v-1.02Z"/>
  <path class="cls-1" d="M127.78,95.45v-.03c17.17-.64,30.89-14.71,30.89-31.97v-31.24h-31.67c-17.49,0-31.67,14.13-31.67,31.56v.03h25.98c2.84,0,5.15,2.3,5.15,5.13v21.36s0,.04,0,.06c-.01,1.24-.35,2.83-1.46,3.65-1.51,1.11-2.64.58-3.04.77-.36.17-.32.48-.11.69s4.7,0,4.7,0c.07,0,.13,0,.2,0h1.02Z"/>
  <path class="cls-1" d="M63.43,127.88h.03c.64,17.11,14.76,30.78,32.08,30.78h31.35v-31.56c0-17.43-14.18-31.56-31.67-31.56h-.03v25.89c0,2.83-2.31,5.13-5.15,5.13h-21.43s-.04,0-.06,0c-1.25-.01-2.84-.35-3.66-1.46-1.11-1.51-.59-2.63-.77-3.03-.17-.36-.48-.32-.69-.11s0,4.68,0,4.68c0,.07,0,.13,0,.2v1.02Z"/>
  <path class="cls-1" d="M30.89,63.21v.03c-17.17.64-30.89,14.71-30.89,31.97v31.24h31.67c17.49,0,31.67-14.13,31.67-31.56v-.03h-25.98c-2.84,0-5.15-2.3-5.15-5.13v-21.36s0-.04,0-.06c.01-1.24.35-2.83,1.46-3.65,1.51-1.11,2.64-.58,3.04-.77.36-.17.32-.48.11-.69s-4.7,0-4.7,0c-.07,0-.13,0-.2,0h-1.02Z"/>
</svg>